<svg xmlns="http://www.w3.org/2000/svg" width="50" height="32" viewBox="0 0 50 32"><defs><linearGradient id="x82la" x1="16" x2="34" y1="32" y2="0" gradientUnits="userSpaceOnUse"><stop offset="0" stop-color="#48c1fb"/><stop offset=".99" stop-color="#2f89dc"/><stop offset="1" stop-color="#2f89dc"/></linearGradient></defs><path fill="#1f2833" d="M39 32c-6.075 0-11-4.925-11-11V1a1 1 0 1 1 2 0v20a9 9 0 0 0 18 0V1a1 1 0 1 1 2 0v20c0 6.075-4.925 11-11 11zm-19.68-1.384L10.503 18H2v12a1 1 0 1 1-2 0V1a1 1 0 0 1 1-1h10a9 9 0 0 1 9 9c0 4.39-3.146 8.042-7.306 8.835l8.102 11.593c.31.43.232 1.046-.175 1.374a.894.894 0 0 1-1.3-.186zM18 9a7 7 0 0 0-7-7H2v14h9a7 7 0 0 0 7-7z"/><path fill="url(#x82la)" d="M39 32c-6.075 0-11-4.925-11-11V1a1 1 0 1 1 2 0v20a9 9 0 0 0 18 0V1a1 1 0 1 1 2 0v20c0 6.075-4.925 11-11 11zm-19.68-1.384L10.503 18H2v12a1 1 0 1 1-2 0V1a1 1 0 0 1 1-1h10a9 9 0 0 1 9 9c0 4.39-3.146 8.042-7.306 8.835l8.102 11.593c.31.43.232 1.046-.175 1.374a.894.894 0 0 1-1.3-.186zM18 9a7 7 0 0 0-7-7H2v14h9a7 7 0 0 0 7-7z"/></svg>