<svg xmlns="http://www.w3.org/2000/svg" width="12" height="14" viewBox="0 0 12 14"><defs><linearGradient id="4eoja" x1="6" x2="6" y1="13.86" y2=".14" gradientUnits="userSpaceOnUse"><stop offset="0" stop-color="#23a6f1"/><stop offset=".99" stop-color="#257ed0"/><stop offset="1" stop-color="#257ed0"/></linearGradient></defs><path d="M11.565 7.857H9.84c-.224 0-.397.176-.422.398A3.44 3.44 0 0 1 5.2 11.196 3.415 3.415 0 0 1 2.668 8.67a3.44 3.44 0 0 1 3.34-4.244v1.286a.43.43 0 0 0 .733.303l2.575-2.573a.43.43 0 0 0 0-.607L6.74.261a.43.43 0 1 0-.733.304v1.287A6.013 6.013 0 0 0 0 7.945c.046 3.186 2.729 5.87 5.917 5.918A6.015 6.015 0 0 0 12 8.308a.431.431 0 0 0-.435-.45z"/><path fill="url(#4eoja)" d="M11.565 7.857H9.84c-.224 0-.397.176-.422.398A3.44 3.44 0 0 1 5.2 11.196 3.415 3.415 0 0 1 2.668 8.67a3.44 3.44 0 0 1 3.34-4.244v1.286a.43.43 0 0 0 .733.303l2.575-2.573a.43.43 0 0 0 0-.607L6.74.261a.43.43 0 1 0-.733.304v1.287A6.013 6.013 0 0 0 0 7.945c.046 3.186 2.729 5.87 5.917 5.918A6.015 6.015 0 0 0 12 8.308a.431.431 0 0 0-.435-.45z"/></svg>