<svg xmlns="http://www.w3.org/2000/svg" width="13" height="16" viewBox="0 0 13 16"><defs><linearGradient id="j4qga" x1="0" x2="13" y1="14" y2="2" gradientUnits="userSpaceOnUse"><stop offset="0" stop-color="#48c1fb"/><stop offset=".99" stop-color="#2f89dc"/><stop offset="1" stop-color="#2f89dc"/></linearGradient></defs><path fill="#464646" d="M1 14h11a1 1 0 0 1 0 2H1a1 1 0 1 1 0-2zM9 0v7h3L6.5 13 1 7h3V0z"/><path fill="url(#j4qga)" d="M1 14h11a1 1 0 0 1 0 2H1a1 1 0 1 1 0-2zM9 0v7h3L6.5 13 1 7h3V0z"/></svg>