<svg xmlns="http://www.w3.org/2000/svg" width="24" height="25" viewBox="0 0 24 25"><path fill="#555" d="M23.704 24.704c-.4.4-1.05.4-1.45 0l-4.792-4.816A10.936 10.936 0 0 1 11 22C4.925 22 0 17.075 0 11S4.925 0 11 0s11 4.925 11 11c0 2.929-1.152 5.583-3.018 7.554l4.722 4.7c.4.4.4 1.05 0 1.45zM20 11a9 9 0 0 0-9-9 9 9 0 1 0 0 18 9 9 0 0 0 9-9z"/><path fill="#444f5c" d="M23.704 24.704c-.4.4-1.05.4-1.45 0l-4.792-4.816A10.936 10.936 0 0 1 11 22C4.925 22 0 17.075 0 11S4.925 0 11 0s11 4.925 11 11c0 2.929-1.152 5.583-3.018 7.554l4.722 4.7c.4.4.4 1.05 0 1.45zM20 11a9 9 0 0 0-9-9 9 9 0 1 0 0 18 9 9 0 0 0 9-9z"/></svg>