<svg xmlns="http://www.w3.org/2000/svg" width="56" height="57" viewBox="0 0 56 57"><defs><linearGradient id="hbu1a" x1="0" x2="56" y1="28" y2="29" gradientUnits="userSpaceOnUse"><stop offset="0" stop-color="#48c1fb"/><stop offset=".99" stop-color="#2f89dc"/><stop offset="1" stop-color="#2f89dc"/></linearGradient></defs><path d="M8.5 44a2.5 2.5 0 1 1 0 5 2.5 2.5 0 0 1 0-5zM8 46.5a.5.5 0 1 0 1 0 .5.5 0 0 0-1 0zM33.744 2c-.072 0-.115 0-.224.11-.322.327-.61.76-.852 1.286-.287.625-.485 1.155-.588 1.573a34.15 34.15 0 0 0-.443 2.199 98.962 98.962 0 0 1-.507 2.298c-.137.568-.38 1.26-.745 2.116-.416.973-.938 1.78-1.551 2.402-.744.754-1.934 2.19-3.538 4.27a69.941 69.941 0 0 1-3.794 4.606c-1.728 1.92-2.916 2.745-4.1 2.845-.097.008-.176.024-.3.153-.097.101-.102.15-.102.23v23.787c0 .095.008.137.101.228.121.12.202.144.319.148.724.021 2.121.24 6.375 1.747 1.876.642 3.303 1.116 4.341 1.442.992.312 2.419.656 4.243 1.024 1.767.356 3.407.536 4.876.536h4.723c2.626-.04 4.491-.75 5.673-2.172 1.078-1.3 1.516-3.028 1.338-5.281a2 2 0 0 1 .606-1.598c.688-.662 1.155-1.496 1.428-2.549.324-1.18.328-2.238.02-3.267a2 2 0 0 1 .311-1.766c.85-1.143 1.236-2.39 1.18-3.813a1.876 1.876 0 0 1-.001-.084c.001-.567-.147-1.3-.442-2.178a2 2 0 0 1 .38-1.942C53.498 29.155 54 27.773 54 26.125c0-1.394-.495-2.575-1.51-3.608C51.481 21.497 50.331 21 48.973 21h-10.14a2 2 0 0 1-1.925-2.541c.114-.404.233-.767.355-1.079.132-.336.306-.69.53-1.082a29.519 29.519 0 0 0 1.267-2.534c.187-.44.387-1.087.594-1.923a9.756 9.756 0 0 0 .29-2.34c0-.568-.007-1.03-.018-1.384-.006-.196-.04-.602-.163-1.444-.089-.599-.202-1.089-.336-1.451-.132-.354-.36-.783-.68-1.273a3.166 3.166 0 0 0-.899-.932c-.401-.268-.955-.506-1.644-.707-.706-.205-1.533-.31-2.461-.31 0 0 .071 0 0 0zm0-2c1.123 0 2.13.13 3.02.39.89.259 1.623.58 2.197.964a5.169 5.169 0 0 1 1.464 1.503c.403.618.695 1.175.879 1.67.183.495.33 1.113.44 1.855.108.742.17 1.299.182 1.67.012.37.018.854.018 1.447 0 .94-.115 1.88-.347 2.82-.233.94-.464 1.683-.695 2.228a30.635 30.635 0 0 1-1.007 2.077c-.073.148-.195.371-.366.668-.17.297-.305.57-.402.817a9.609 9.609 0 0 0-.293.89h10.14c1.903 0 3.55.705 4.941 2.116 1.388 1.41 2.085 3.08 2.085 5.01 0 2.128-.671 3.971-2.014 5.53.367 1.089.55 2.028.547 2.82.074 1.881-.451 3.576-1.574 5.085.415 1.385.415 2.833 0 4.342-.365 1.41-1.025 2.572-1.976 3.488.219 2.77-.379 5.01-1.794 6.716-1.562 1.88-3.965 2.845-7.211 2.894h-4.723c-1.61 0-3.367-.192-5.27-.576-1.903-.383-3.386-.742-4.448-1.076a191.17 191.17 0 0 1-4.41-1.465c-3.002-1.064-4.93-1.609-5.784-1.633a2.374 2.374 0 0 1-1.242-.393A4.998 4.998 0 0 1 12 54H5c-2.757 0-5-2.243-5-5V27c0-2.757 2.243-5 5-5h7c1.683 0 3.174.836 4.08 2.114a2.347 2.347 0 0 1 1.153-.402c.586-.05 1.513-.779 2.782-2.19a67.824 67.824 0 0 0 3.697-4.49c1.66-2.152 2.893-3.636 3.698-4.452.44-.446.817-1.04 1.135-1.782.316-.742.53-1.341.64-1.8.11-.457.275-1.205.495-2.245.17-.964.323-1.719.458-2.263.134-.545.372-1.188.713-1.93.342-.742.758-1.36 1.246-1.855C32.56.235 33.109 0 33.744 0zM5 24c-1.654 0-3 1.346-3 3v22c0 1.654 1.346 3 3 3h7c1.654 0 3-1.346 3-3V27c0-1.654-1.346-3-3-3z"/><path fill="url(#hbu1a)" d="M8.5 44a2.5 2.5 0 1 1 0 5 2.5 2.5 0 0 1 0-5zM8 46.5a.5.5 0 1 0 1 0 .5.5 0 0 0-1 0zM33.744 2c-.072 0-.115 0-.224.11-.322.327-.61.76-.852 1.286-.287.625-.485 1.155-.588 1.573a34.15 34.15 0 0 0-.443 2.199 98.962 98.962 0 0 1-.507 2.298c-.137.568-.38 1.26-.745 2.116-.416.973-.938 1.78-1.551 2.402-.744.754-1.934 2.19-3.538 4.27a69.941 69.941 0 0 1-3.794 4.606c-1.728 1.92-2.916 2.745-4.1 2.845-.097.008-.176.024-.3.153-.097.101-.102.15-.102.23v23.787c0 .095.008.137.101.228.121.12.202.144.319.148.724.021 2.121.24 6.375 1.747 1.876.642 3.303 1.116 4.341 1.442.992.312 2.419.656 4.243 1.024 1.767.356 3.407.536 4.876.536h4.723c2.626-.04 4.491-.75 5.673-2.172 1.078-1.3 1.516-3.028 1.338-5.281a2 2 0 0 1 .606-1.598c.688-.662 1.155-1.496 1.428-2.549.324-1.18.328-2.238.02-3.267a2 2 0 0 1 .311-1.766c.85-1.143 1.236-2.39 1.18-3.813a1.876 1.876 0 0 1-.001-.084c.001-.567-.147-1.3-.442-2.178a2 2 0 0 1 .38-1.942C53.498 29.155 54 27.773 54 26.125c0-1.394-.495-2.575-1.51-3.608C51.481 21.497 50.331 21 48.973 21h-10.14a2 2 0 0 1-1.925-2.541c.114-.404.233-.767.355-1.079.132-.336.306-.69.53-1.082a29.519 29.519 0 0 0 1.267-2.534c.187-.44.387-1.087.594-1.923a9.756 9.756 0 0 0 .29-2.34c0-.568-.007-1.03-.018-1.384-.006-.196-.04-.602-.163-1.444-.089-.599-.202-1.089-.336-1.451-.132-.354-.36-.783-.68-1.273a3.166 3.166 0 0 0-.899-.932c-.401-.268-.955-.506-1.644-.707-.706-.205-1.533-.31-2.461-.31 0 0 .071 0 0 0zm0-2c1.123 0 2.13.13 3.02.39.89.259 1.623.58 2.197.964a5.169 5.169 0 0 1 1.464 1.503c.403.618.695 1.175.879 1.67.183.495.33 1.113.44 1.855.108.742.17 1.299.182 1.67.012.37.018.854.018 1.447 0 .94-.115 1.88-.347 2.82-.233.94-.464 1.683-.695 2.228a30.635 30.635 0 0 1-1.007 2.077c-.073.148-.195.371-.366.668-.17.297-.305.57-.402.817a9.609 9.609 0 0 0-.293.89h10.14c1.903 0 3.55.705 4.941 2.116 1.388 1.41 2.085 3.08 2.085 5.01 0 2.128-.671 3.971-2.014 5.53.367 1.089.55 2.028.547 2.82.074 1.881-.451 3.576-1.574 5.085.415 1.385.415 2.833 0 4.342-.365 1.41-1.025 2.572-1.976 3.488.219 2.77-.379 5.01-1.794 6.716-1.562 1.88-3.965 2.845-7.211 2.894h-4.723c-1.61 0-3.367-.192-5.27-.576-1.903-.383-3.386-.742-4.448-1.076a191.17 191.17 0 0 1-4.41-1.465c-3.002-1.064-4.93-1.609-5.784-1.633a2.374 2.374 0 0 1-1.242-.393A4.998 4.998 0 0 1 12 54H5c-2.757 0-5-2.243-5-5V27c0-2.757 2.243-5 5-5h7c1.683 0 3.174.836 4.08 2.114a2.347 2.347 0 0 1 1.153-.402c.586-.05 1.513-.779 2.782-2.19a67.824 67.824 0 0 0 3.697-4.49c1.66-2.152 2.893-3.636 3.698-4.452.44-.446.817-1.04 1.135-1.782.316-.742.53-1.341.64-1.8.11-.457.275-1.205.495-2.245.17-.964.323-1.719.458-2.263.134-.545.372-1.188.713-1.93.342-.742.758-1.36 1.246-1.855C32.56.235 33.109 0 33.744 0zM5 24c-1.654 0-3 1.346-3 3v22c0 1.654 1.346 3 3 3h7c1.654 0 3-1.346 3-3V27c0-1.654-1.346-3-3-3z"/></svg>