<svg xmlns="http://www.w3.org/2000/svg" width="61" height="47" viewBox="0 0 61 47"><defs><linearGradient id="papha" x1="0" x2="61" y1="23" y2="24" gradientUnits="userSpaceOnUse"><stop offset="0" stop-color="#48c1fb"/><stop offset=".99" stop-color="#2f89dc"/><stop offset="1" stop-color="#2f89dc"/></linearGradient></defs><g><g><path fill="#363636" d="M57.84 42h-9.88a1.002 1.002 0 0 1-1.005-1c0-.554.45-1.001 1.004-1.001h9.882c.629 0 1.14-.476 1.14-1.061v-4.506c-.067-.296-1.198-1.53-5.356-2.97-3.985-1.383-6.145-2.779-6.145-6.192 0-.398.062-.745.19-1.059.176-.433.44-.718.674-.972.357-.385.727-.784.976-2.064.189-.968.83-1.26 1.139-1.401.145-.067.325-.149.408-1.208-.002-.249-.08-.365-.107-.397a1.001 1.001 0 0 1-.488-1.06c.003-.016.303-1.564.419-2.73.049-.496-.104-1.707-1.036-2.73C48.66 10.554 47.096 10 45.006 10h-.13c-2.105 0-3.669.554-4.663 1.647-.932 1.024-1.085 2.235-1.036 2.733.116 1.164.416 2.712.418 2.728a.998.998 0 0 1-.487 1.059c-.026.034-.105.16-.105.476.08.981.261 1.063.406 1.13.308.14.95.433 1.139 1.401.249 1.28.619 1.679.976 2.064.234.253.499.539.675.973.127.316.189.662.189 1.058 0 1.137-.223 2.032-.702 2.813a1.004 1.004 0 0 1-1.38.334.997.997 0 0 1-.334-1.375c.278-.455.408-1.018.408-1.772a.874.874 0 0 0-.043-.31c-.037-.09-.13-.19-.289-.364-.44-.475-1.104-1.191-1.463-2.999l-.013-.005c-.838-.383-1.427-1.018-1.574-2.87-.001-.848.251-1.411.527-1.77a33.656 33.656 0 0 1-.346-2.376c-.106-1.07.236-2.83 1.546-4.27C39.682 9.252 41.523 8 44.86 8h.145c3.339 0 5.18 1.253 6.137 2.305 1.31 1.44 1.652 3.201 1.546 4.27-.081.82-.24 1.779-.345 2.367.276.35.528.892.528 1.702-.15 1.93-.737 2.565-1.576 2.948l-.01.004c-.373 1.82-1.03 2.529-1.466 3-.16.172-.252.275-.289.367a.85.85 0 0 0-.043.307c0 1.861.667 2.87 4.797 4.302 3.058 1.06 6.704 2.764 6.704 4.86v4.506c0 1.688-1.412 3.062-3.148 3.062zM44 36.764v6.338C44 45.25 42.21 47 40.009 47H3.99C1.791 47 0 45.25 0 43.102v-6.338c0-2.708 4.94-5.002 9.083-6.45 5.958-2.082 6.963-3.667 6.963-6.433 0-.246-.029-.439-.09-.588-.078-.195-.218-.353-.48-.638-.623-.678-1.476-1.605-1.953-4.075a.525.525 0 0 0-.046-.157 15.006 15.006 0 0 1-.188-.086c-.877-.404-1.751-1.023-1.962-3.696-.001-1.193.386-1.924.762-2.353-.142-.79-.39-2.253-.51-3.486-.14-1.427.317-3.778 2.066-5.706C14.926 1.683 17.398 0 21.898 0L22 .002l.101.998V0c4.501 0 6.973 1.683 8.254 3.096 1.749 1.928 2.205 4.279 2.066 5.706-.12 1.23-.367 2.688-.508 3.48.375.42.763 1.131.763 2.28-.213 2.752-1.087 3.37-1.965 3.775-.07.033-.165.077-.198.1.002.003-.017.047-.036.144-.477 2.469-1.33 3.396-1.953 4.074-.262.285-.402.443-.48.638-.062.151-.09.343-.09.588 0 2.766 1.004 4.351 6.962 6.433C39.06 31.762 44 34.056 44 36.764zm-2 0c0-.482-1.423-2.353-7.743-4.562-5.508-1.924-8.304-3.74-8.304-8.321 0-.507.077-.944.235-1.335.218-.542.546-.9.864-1.244.511-.557 1.091-1.188 1.461-3.1.224-1.157.936-1.485 1.361-1.68.33-.153.669-.31.805-2.038-.003-.712-.307-.92-.32-.93-.426-.188-.606-.615-.517-1.073.004-.021.426-2.217.589-3.875.074-.764-.155-2.62-1.558-4.167C27.405 2.82 25.127 2 22.1 2L22 2.003 21.898 2c-3.025 0-5.303.82-6.771 2.44-1.403 1.546-1.632 3.402-1.558 4.166.163 1.658.585 3.853.59 3.875a1 1 0 0 1-.575 1.103h.001c.016 0-.26.224-.26.978.132 1.65.472 1.807.801 1.96.426.195 1.138.523 1.361 1.678.37 1.914.95 2.545 1.462 3.102.317.344.645.702.863 1.245.158.391.234.828.234 1.334 0 4.582-2.796 6.397-8.303 8.321C3.423 34.412 2 36.282 2 36.764v6.338C2 44.148 2.893 45 3.99 45H40.01C41.107 45 42 44.148 42 43.102zm-28.416-23.18h-.002.002z"/><path fill="url(#papha)" d="M57.84 42h-9.88a1.002 1.002 0 0 1-1.005-1c0-.554.45-1.001 1.004-1.001h9.882c.629 0 1.14-.476 1.14-1.061v-4.506c-.067-.296-1.198-1.53-5.356-2.97-3.985-1.383-6.145-2.779-6.145-6.192 0-.398.062-.745.19-1.059.176-.433.44-.718.674-.972.357-.385.727-.784.976-2.064.189-.968.83-1.26 1.139-1.401.145-.067.325-.149.408-1.208-.002-.249-.08-.365-.107-.397a1.001 1.001 0 0 1-.488-1.06c.003-.016.303-1.564.419-2.73.049-.496-.104-1.707-1.036-2.73C48.66 10.554 47.096 10 45.006 10h-.13c-2.105 0-3.669.554-4.663 1.647-.932 1.024-1.085 2.235-1.036 2.733.116 1.164.416 2.712.418 2.728a.998.998 0 0 1-.487 1.059c-.026.034-.105.16-.105.476.08.981.261 1.063.406 1.13.308.14.95.433 1.139 1.401.249 1.28.619 1.679.976 2.064.234.253.499.539.675.973.127.316.189.662.189 1.058 0 1.137-.223 2.032-.702 2.813a1.004 1.004 0 0 1-1.38.334.997.997 0 0 1-.334-1.375c.278-.455.408-1.018.408-1.772a.874.874 0 0 0-.043-.31c-.037-.09-.13-.19-.289-.364-.44-.475-1.104-1.191-1.463-2.999l-.013-.005c-.838-.383-1.427-1.018-1.574-2.87-.001-.848.251-1.411.527-1.77a33.656 33.656 0 0 1-.346-2.376c-.106-1.07.236-2.83 1.546-4.27C39.682 9.252 41.523 8 44.86 8h.145c3.339 0 5.18 1.253 6.137 2.305 1.31 1.44 1.652 3.201 1.546 4.27-.081.82-.24 1.779-.345 2.367.276.35.528.892.528 1.702-.15 1.93-.737 2.565-1.576 2.948l-.01.004c-.373 1.82-1.03 2.529-1.466 3-.16.172-.252.275-.289.367a.85.85 0 0 0-.043.307c0 1.861.667 2.87 4.797 4.302 3.058 1.06 6.704 2.764 6.704 4.86v4.506c0 1.688-1.412 3.062-3.148 3.062zM44 36.764v6.338C44 45.25 42.21 47 40.009 47H3.99C1.791 47 0 45.25 0 43.102v-6.338c0-2.708 4.94-5.002 9.083-6.45 5.958-2.082 6.963-3.667 6.963-6.433 0-.246-.029-.439-.09-.588-.078-.195-.218-.353-.48-.638-.623-.678-1.476-1.605-1.953-4.075a.525.525 0 0 0-.046-.157 15.006 15.006 0 0 1-.188-.086c-.877-.404-1.751-1.023-1.962-3.696-.001-1.193.386-1.924.762-2.353-.142-.79-.39-2.253-.51-3.486-.14-1.427.317-3.778 2.066-5.706C14.926 1.683 17.398 0 21.898 0L22 .002l.101.998V0c4.501 0 6.973 1.683 8.254 3.096 1.749 1.928 2.205 4.279 2.066 5.706-.12 1.23-.367 2.688-.508 3.48.375.42.763 1.131.763 2.28-.213 2.752-1.087 3.37-1.965 3.775-.07.033-.165.077-.198.1.002.003-.017.047-.036.144-.477 2.469-1.33 3.396-1.953 4.074-.262.285-.402.443-.48.638-.062.151-.09.343-.09.588 0 2.766 1.004 4.351 6.962 6.433C39.06 31.762 44 34.056 44 36.764zm-2 0c0-.482-1.423-2.353-7.743-4.562-5.508-1.924-8.304-3.74-8.304-8.321 0-.507.077-.944.235-1.335.218-.542.546-.9.864-1.244.511-.557 1.091-1.188 1.461-3.1.224-1.157.936-1.485 1.361-1.68.33-.153.669-.31.805-2.038-.003-.712-.307-.92-.32-.93-.426-.188-.606-.615-.517-1.073.004-.021.426-2.217.589-3.875.074-.764-.155-2.62-1.558-4.167C27.405 2.82 25.127 2 22.1 2L22 2.003 21.898 2c-3.025 0-5.303.82-6.771 2.44-1.403 1.546-1.632 3.402-1.558 4.166.163 1.658.585 3.853.59 3.875a1 1 0 0 1-.575 1.103h.001c.016 0-.26.224-.26.978.132 1.65.472 1.807.801 1.96.426.195 1.138.523 1.361 1.678.37 1.914.95 2.545 1.462 3.102.317.344.645.702.863 1.245.158.391.234.828.234 1.334 0 4.582-2.796 6.397-8.303 8.321C3.423 34.412 2 36.282 2 36.764v6.338C2 44.148 2.893 45 3.99 45H40.01C41.107 45 42 44.148 42 43.102zm-28.416-23.18h-.002.002z"/></g></g></svg>