<svg xmlns="http://www.w3.org/2000/svg" width="59" height="57" viewBox="0 0 59 57"><defs><linearGradient id="49o4a" x1="0" x2="59" y1="28" y2="29" gradientUnits="userSpaceOnUse"><stop offset="0" stop-color="#48c1fb"/><stop offset=".99" stop-color="#2f89dc"/><stop offset="1" stop-color="#2f89dc"/></linearGradient></defs><g><g><path d="M58.038 57H1a1 1 0 0 1-1-1V33.28a1 1 0 0 1 .54-.888v-.002l14.123-6.733a.967.967 0 0 1 .908.085.958.958 0 0 1 .429.792l.044 5.92 7.08-3.558L25.84 2.053A2.26 2.26 0 0 1 28.08 0h.668a2.26 2.26 0 0 1 2.242 2.053l2.846 28.145 3.29-1.33L39.84 2.054A2.26 2.26 0 0 1 42.08 0h.668a2.26 2.26 0 0 1 2.242 2.053l2.872 28.4 9.8-4.796a.967.967 0 0 1 .908.085.96.96 0 0 1 .432.8V56.04c0 .53-.433.96-.965.96zM9 55h13V40H9zM29.03 2.257A.283.283 0 0 0 28.75 2h-.67a.283.283 0 0 0-.28.257L27.32 7h2.19zM29.712 9h-2.594l-.202 2h2.998zm.404 4h-3.402L25.23 27.664l3.432-2.007a.967.967 0 0 1 .908.085.958.958 0 0 1 .429.792v5.89l1.965-1.14zM43.03 2.257A.283.283 0 0 0 42.75 2h-.67a.283.283 0 0 0-.28.257L41.32 7h2.19zM43.712 9h-2.594l-.202 2h2.998zm.404 4h-3.402l-1.481 14.647 3.43-1.99a.967.967 0 0 1 .908.084.96.96 0 0 1 .43.801v6.015l1.983-1.08zm12.958 14.99l-13.662 6.9a.966.966 0 0 1-1.34-.886v-6.015L30 34.54v.003l-.588.347a.966.966 0 0 1-1.339-.885v-6.015L16.06 34.52l-.648.37a.966.966 0 0 1-1.339-.885v-6.015L2 33.88V55h5V39a1 1 0 0 1 1-1h15a1 1 0 0 1 1 1v16h9c.138 0 .27.028.389.078h23.685zM34 48v-6a1 1 0 1 1 2 0v6a1 1 0 1 1-2 0zm6-7a1 1 0 0 1 1 1v6a1 1 0 0 1-2 0v-6a1 1 0 0 1 1-1zm5 0a1 1 0 0 1 1 1v6a1 1 0 1 1-2 0v-6a1 1 0 0 1 1-1zm5 0a1 1 0 0 1 1 1v6a1 1 0 1 1-2 0v-6a1 1 0 0 1 1-1zm-20 8a1 1 0 0 1-1-1v-6a1 1 0 1 1 2 0v6a1 1 0 0 1-1 1zm-10-5h-9a1 1 0 1 1 0-2h9a1 1 0 0 1 0 2z"/><path fill="url(#49o4a)" d="M58.038 57H1a1 1 0 0 1-1-1V33.28a1 1 0 0 1 .54-.888v-.002l14.123-6.733a.967.967 0 0 1 .908.085.958.958 0 0 1 .429.792l.044 5.92 7.08-3.558L25.84 2.053A2.26 2.26 0 0 1 28.08 0h.668a2.26 2.26 0 0 1 2.242 2.053l2.846 28.145 3.29-1.33L39.84 2.054A2.26 2.26 0 0 1 42.08 0h.668a2.26 2.26 0 0 1 2.242 2.053l2.872 28.4 9.8-4.796a.967.967 0 0 1 .908.085.96.96 0 0 1 .432.8V56.04c0 .53-.433.96-.965.96zM9 55h13V40H9zM29.03 2.257A.283.283 0 0 0 28.75 2h-.67a.283.283 0 0 0-.28.257L27.32 7h2.19zM29.712 9h-2.594l-.202 2h2.998zm.404 4h-3.402L25.23 27.664l3.432-2.007a.967.967 0 0 1 .908.085.958.958 0 0 1 .429.792v5.89l1.965-1.14zM43.03 2.257A.283.283 0 0 0 42.75 2h-.67a.283.283 0 0 0-.28.257L41.32 7h2.19zM43.712 9h-2.594l-.202 2h2.998zm.404 4h-3.402l-1.481 14.647 3.43-1.99a.967.967 0 0 1 .908.084.96.96 0 0 1 .43.801v6.015l1.983-1.08zm12.958 14.99l-13.662 6.9a.966.966 0 0 1-1.34-.886v-6.015L30 34.54v.003l-.588.347a.966.966 0 0 1-1.339-.885v-6.015L16.06 34.52l-.648.37a.966.966 0 0 1-1.339-.885v-6.015L2 33.88V55h5V39a1 1 0 0 1 1-1h15a1 1 0 0 1 1 1v16h9c.138 0 .27.028.389.078h23.685zM34 48v-6a1 1 0 1 1 2 0v6a1 1 0 1 1-2 0zm6-7a1 1 0 0 1 1 1v6a1 1 0 0 1-2 0v-6a1 1 0 0 1 1-1zm5 0a1 1 0 0 1 1 1v6a1 1 0 1 1-2 0v-6a1 1 0 0 1 1-1zm5 0a1 1 0 0 1 1 1v6a1 1 0 1 1-2 0v-6a1 1 0 0 1 1-1zm-20 8a1 1 0 0 1-1-1v-6a1 1 0 1 1 2 0v6a1 1 0 0 1-1 1zm-10-5h-9a1 1 0 1 1 0-2h9a1 1 0 0 1 0 2z"/></g></g></svg>