<svg xmlns="http://www.w3.org/2000/svg" width="59" height="63" viewBox="0 0 59 63"><defs><linearGradient id="wabea" x1="0" x2="59" y1="31" y2="32" gradientUnits="userSpaceOnUse"><stop offset="0" stop-color="#48c1fb"/><stop offset=".99" stop-color="#2f89dc"/><stop offset="1" stop-color="#2f89dc"/></linearGradient></defs><g><g><path fill="#0587d1" d="M49 54.307V59a4 4 0 0 1-4 4h-6a4.003 4.003 0 0 1-3.685-2.442c-1.56.287-3.168.441-4.815.441-1.648 0-3.246-.185-4.805-.475A4 4 0 0 1 22 63h-6a4 4 0 0 1-4-4v-3.675a24.4 24.4 0 0 1-5.393-8.326H5C1.92 46.998 0 44.549 0 40.605V36c0-3.875 1.793-6.097 4.92-6.097h1.26c.469-3.24.951-5.428 3.562-8.128-.171-.421-.33-.852-.483-1.272-.612-1.678-1.191-3.263-2.55-3.917a1.36 1.36 0 0 1-.761-1.465c.103-.6.58-1.05 1.188-1.115 2.556-.284 5.414.319 9.804 2.07.627-.248 1.42-.528 2.313-.82a12.531 12.531 0 0 1-.31-2.756c0-6.894 5.614-12.501 12.514-12.501 6.901 0 12.515 5.607 12.515 12.5 0 1.317-.22 2.613-.623 3.848 6.949 3.905 11.807 10.871 12.55 18.978a1.835 1.835 0 0 0 1.188-1.729c0-.544.428-.985.956-.985s.956.441.956.985c0 1.679-1.062 3.106-2.53 3.61.314 1.096-.426.409-.496 1.392 0 .029-.004.088-.004.088-.303 6.047-2.91 11.501-6.97 15.622zM31.458 1.997c-5.796 0-10.511 4.71-10.51 10.5 0 1.014.156 2 .432 2.944l.11.335c.29.878.691 1.701 1.186 2.46l.052.077c.224.336.47.656.731.964.04.046.075.093.115.138.29.332.601.65.935.944.058-.035.12-.058.179-.09.413-.233.836-.441 1.264-.633.121-.054.24-.115.362-.166.533-.224 1.076-.42 1.626-.58.165-.049.333-.078.498-.122a16.2 16.2 0 0 1 1.142-.257c.269-.05.538-.081.808-.117a15.856 15.856 0 0 1 1.749-.13c.257-.005.512.003.768.012.314.01.627.015.94.044.25.023.5.068.751.103a15.67 15.67 0 0 1 1.575.302c.286.07.572.136.856.222.261.082.517.178.776.271.299.11.595.224.889.352.125.055.255.092.38.15a10.687 10.687 0 0 0 2.097-3.24l.156-.374c.418-1.14.645-2.352.645-3.609 0-5.79-4.715-10.5-10.512-10.5zm11.154 16.234c-.014.028-.034.042-.065.024-.022.042-.05.084-.073.126a12.638 12.638 0 0 1-.618 1.026c-.117.174-.235.348-.36.517-.128.174-.265.34-.4.506-.079.095-.148.196-.229.289.95.605 1.854 1.312 2.683 2.14a.998.998 0 0 1-.708 1.707.999.999 0 0 1-.707-.293 13.716 13.716 0 0 0-4.52-3.001l-.073-.03a13.882 13.882 0 0 0-7.743-.746c-.035.008-.07.016-.106.022-.369.073-.734.165-1.098.267-.062.019-.125.034-.187.052-.371.113-.74.242-1.103.386-.103.04-.203.087-.306.13-.257.109-.511.227-.763.354-.13.065-.26.127-.388.196-.316.172-.628.353-.933.55l-.16.103a13.735 13.735 0 0 0-2.1 1.717 1 1 0 1 1-1.415-1.415 15.897 15.897 0 0 1 1.568-1.351 8.777 8.777 0 0 1-.19-.187c-.076-.075-.143-.157-.217-.236a12.458 12.458 0 0 1-.854-.986c-.052-.067-.1-.138-.15-.206a12.353 12.353 0 0 1-.78-1.189l-.06-.108a12.303 12.303 0 0 1-.694-1.437 37.074 37.074 0 0 0-2.534.916l-.381.158-.382-.154c-3.205-1.3-5.508-1.965-7.415-2.11.985 1.091 1.511 2.53 1.992 3.848.229.627.445 1.218.698 1.754l.307.65-.518.498c-2.798 2.694-3.061 4.575-3.586 8.322l-.12.861H4.92c-.722 0-2.918 0-2.918 4.097v4.605c0 1.96.585 4.396 2.997 4.396h3.005c.845 2.683 2.236 5.126 3.995 7.28v-1.281a1 1 0 1 1 2 0v8a2 2 0 0 0 2 2h6a2 2 0 0 0 2-2v-2a1 1 0 0 1 2 0v1.543c1.46.275 2.955.458 4.5.458a24.13 24.13 0 0 0 4.545-.446c.006-.055.029-.105.037-.16a.99.99 0 0 1-.082-.395v-1a1 1 0 0 1 2 0v2a2 2 0 0 0 2 2h6a2 2 0 0 0 2-2v-12a1 1 0 0 1 2 0v4.301c3.113-3.813 5-8.586 5-13.8 0-8.182-4.568-15.331-11.388-19.268zm-28.173 14.67a3.506 3.506 0 0 1-3.504-3.5c0-1.93 1.572-3.5 3.504-3.5a3.506 3.506 0 0 1 3.504 3.5c0 1.93-1.572 3.5-3.504 3.5zm0-5c-.828 0-1.501.673-1.501 1.5 0 .828.673 1.501 1.501 1.501.828 0 1.502-.673 1.502-1.5 0-.828-.674-1.5-1.502-1.5zm22.71-9.686a1 1 0 1 1-1.36-1.468 6.313 6.313 0 0 0 2.06-4.682c0-3.52-2.867-6.383-6.39-6.383-3.525 0-6.39 2.864-6.39 6.383 0 1.982.905 3.821 2.484 5.044a1 1 0 1 1-1.226 1.58 8.331 8.331 0 0 1-3.262-6.624c0-4.622 3.765-8.383 8.392-8.383 4.628 0 8.393 3.761 8.393 8.383a8.4 8.4 0 0 1-2.7 6.15z"/><path fill="url(#wabea)" d="M49 54.307V59a4 4 0 0 1-4 4h-6a4.003 4.003 0 0 1-3.685-2.442c-1.56.287-3.168.441-4.815.441-1.648 0-3.246-.185-4.805-.475A4 4 0 0 1 22 63h-6a4 4 0 0 1-4-4v-3.675a24.4 24.4 0 0 1-5.393-8.326H5C1.92 46.998 0 44.549 0 40.605V36c0-3.875 1.793-6.097 4.92-6.097h1.26c.469-3.24.951-5.428 3.562-8.128-.171-.421-.33-.852-.483-1.272-.612-1.678-1.191-3.263-2.55-3.917a1.36 1.36 0 0 1-.761-1.465c.103-.6.58-1.05 1.188-1.115 2.556-.284 5.414.319 9.804 2.07.627-.248 1.42-.528 2.313-.82a12.531 12.531 0 0 1-.31-2.756c0-6.894 5.614-12.501 12.514-12.501 6.901 0 12.515 5.607 12.515 12.5 0 1.317-.22 2.613-.623 3.848 6.949 3.905 11.807 10.871 12.55 18.978a1.835 1.835 0 0 0 1.188-1.729c0-.544.428-.985.956-.985s.956.441.956.985c0 1.679-1.062 3.106-2.53 3.61.314 1.096-.426.409-.496 1.392 0 .029-.004.088-.004.088-.303 6.047-2.91 11.501-6.97 15.622zM31.458 1.997c-5.796 0-10.511 4.71-10.51 10.5 0 1.014.156 2 .432 2.944l.11.335c.29.878.691 1.701 1.186 2.46l.052.077c.224.336.47.656.731.964.04.046.075.093.115.138.29.332.601.65.935.944.058-.035.12-.058.179-.09.413-.233.836-.441 1.264-.633.121-.054.24-.115.362-.166.533-.224 1.076-.42 1.626-.58.165-.049.333-.078.498-.122a16.2 16.2 0 0 1 1.142-.257c.269-.05.538-.081.808-.117a15.856 15.856 0 0 1 1.749-.13c.257-.005.512.003.768.012.314.01.627.015.94.044.25.023.5.068.751.103a15.67 15.67 0 0 1 1.575.302c.286.07.572.136.856.222.261.082.517.178.776.271.299.11.595.224.889.352.125.055.255.092.38.15a10.687 10.687 0 0 0 2.097-3.24l.156-.374c.418-1.14.645-2.352.645-3.609 0-5.79-4.715-10.5-10.512-10.5zm11.154 16.234c-.014.028-.034.042-.065.024-.022.042-.05.084-.073.126a12.638 12.638 0 0 1-.618 1.026c-.117.174-.235.348-.36.517-.128.174-.265.34-.4.506-.079.095-.148.196-.229.289.95.605 1.854 1.312 2.683 2.14a.998.998 0 0 1-.708 1.707.999.999 0 0 1-.707-.293 13.716 13.716 0 0 0-4.52-3.001l-.073-.03a13.882 13.882 0 0 0-7.743-.746c-.035.008-.07.016-.106.022-.369.073-.734.165-1.098.267-.062.019-.125.034-.187.052-.371.113-.74.242-1.103.386-.103.04-.203.087-.306.13-.257.109-.511.227-.763.354-.13.065-.26.127-.388.196-.316.172-.628.353-.933.55l-.16.103a13.735 13.735 0 0 0-2.1 1.717 1 1 0 1 1-1.415-1.415 15.897 15.897 0 0 1 1.568-1.351 8.777 8.777 0 0 1-.19-.187c-.076-.075-.143-.157-.217-.236a12.458 12.458 0 0 1-.854-.986c-.052-.067-.1-.138-.15-.206a12.353 12.353 0 0 1-.78-1.189l-.06-.108a12.303 12.303 0 0 1-.694-1.437 37.074 37.074 0 0 0-2.534.916l-.381.158-.382-.154c-3.205-1.3-5.508-1.965-7.415-2.11.985 1.091 1.511 2.53 1.992 3.848.229.627.445 1.218.698 1.754l.307.65-.518.498c-2.798 2.694-3.061 4.575-3.586 8.322l-.12.861H4.92c-.722 0-2.918 0-2.918 4.097v4.605c0 1.96.585 4.396 2.997 4.396h3.005c.845 2.683 2.236 5.126 3.995 7.28v-1.281a1 1 0 1 1 2 0v8a2 2 0 0 0 2 2h6a2 2 0 0 0 2-2v-2a1 1 0 0 1 2 0v1.543c1.46.275 2.955.458 4.5.458a24.13 24.13 0 0 0 4.545-.446c.006-.055.029-.105.037-.16a.99.99 0 0 1-.082-.395v-1a1 1 0 0 1 2 0v2a2 2 0 0 0 2 2h6a2 2 0 0 0 2-2v-12a1 1 0 0 1 2 0v4.301c3.113-3.813 5-8.586 5-13.8 0-8.182-4.568-15.331-11.388-19.268zm-28.173 14.67a3.506 3.506 0 0 1-3.504-3.5c0-1.93 1.572-3.5 3.504-3.5a3.506 3.506 0 0 1 3.504 3.5c0 1.93-1.572 3.5-3.504 3.5zm0-5c-.828 0-1.501.673-1.501 1.5 0 .828.673 1.501 1.501 1.501.828 0 1.502-.673 1.502-1.5 0-.828-.674-1.5-1.502-1.5zm22.71-9.686a1 1 0 1 1-1.36-1.468 6.313 6.313 0 0 0 2.06-4.682c0-3.52-2.867-6.383-6.39-6.383-3.525 0-6.39 2.864-6.39 6.383 0 1.982.905 3.821 2.484 5.044a1 1 0 1 1-1.226 1.58 8.331 8.331 0 0 1-3.262-6.624c0-4.622 3.765-8.383 8.392-8.383 4.628 0 8.393 3.761 8.393 8.383a8.4 8.4 0 0 1-2.7 6.15z"/></g></g></svg>