<svg xmlns="http://www.w3.org/2000/svg" width="16" height="16" viewBox="0 0 16 16"><defs><linearGradient id="7ol8a" x1="0" x2="16" y1="8.01" y2="8" gradientUnits="userSpaceOnUse"><stop offset="0" stop-color="#48c1fb"/><stop offset=".99" stop-color="#2f89dc"/><stop offset="1" stop-color="#2f89dc"/></linearGradient><clipPath id="7ol8b"><path fill="#fff" d="M8 .005a8 8 0 1 1 0 16 8 8 0 0 1 0-16zM2 8a6 6 0 1 0 12 0A6 6 0 0 0 2 8zm6.293-2.95a1 1 0 1 1 1.414 1.414L8.17 8l1.536 1.535a1 1 0 0 1-1.414 1.415L6.05 8.707a1 1 0 0 1 0-1.414z"/></clipPath></defs><g><g><path fill="url(#7ol8a)" d="M8 .005a8 8 0 1 1 0 16 8 8 0 0 1 0-16zM2 8a6 6 0 1 0 12 0A6 6 0 0 0 2 8zm6.293-2.95a1 1 0 1 1 1.414 1.414L8.17 8l1.536 1.535a1 1 0 0 1-1.414 1.415L6.05 8.707a1 1 0 0 1 0-1.414z"/><path fill="none" stroke="#2b91d4" stroke-miterlimit="50" stroke-width="4" d="M8 .005a8 8 0 1 1 0 16 8 8 0 0 1 0-16zM2 8a6 6 0 1 0 12 0A6 6 0 0 0 2 8zm6.293-2.95a1 1 0 1 1 1.414 1.414L8.17 8l1.536 1.535a1 1 0 0 1-1.414 1.415L6.05 8.707a1 1 0 0 1 0-1.414z" clip-path="url(&quot;#7ol8b&quot;)"/></g></g></svg>