<svg xmlns="http://www.w3.org/2000/svg" width="11" height="14" viewBox="0 0 11 14">
	<defs>
		<linearGradient id="sbx4a" x1="0" x2="11" y1="7" y2="7" gradientUnits="userSpaceOnUse">
			<stop offset="0" stop-color="#48c1fb"/>
			<stop offset=".99" stop-color="#2f89dc"/>
			<stop offset="1" stop-color="#2f89dc"/>
		</linearGradient>
	</defs>
	<g>
		<g>
			<path fill="#ff963b" d="M1 1h2a1 1 0 0 1 1-1h3a1 1 0 0 1 1 1h2a1 1 0 1 1 0 2H1a1 1 0 0 1 0-2zm7 13H3a2 2 0 0 1-2-2V4h9v8a2 2 0 0 1-2 2zM4 6.5a.5.5 0 0 0-1 0v5a.5.5 0 0 0 1 0zm2 0a.5.5 0 0 0-1 0v5a.5.5 0 0 0 1 0zm2 5v-5a.5.5 0 0 0-1 0v5a.5.5 0 0 0 1 0z"/>
			<path fill="url(#sbx4a)" d="M1 1h2a1 1 0 0 1 1-1h3a1 1 0 0 1 1 1h2a1 1 0 1 1 0 2H1a1 1 0 0 1 0-2zm7 13H3a2 2 0 0 1-2-2V4h9v8a2 2 0 0 1-2 2zM4 6.5a.5.5 0 0 0-1 0v5a.5.5 0 0 0 1 0zm2 0a.5.5 0 0 0-1 0v5a.5.5 0 0 0 1 0zm2 5v-5a.5.5 0 0 0-1 0v5a.5.5 0 0 0 1 0z"/>
		</g>
	</g>
</svg>