<svg xmlns="http://www.w3.org/2000/svg" width="22" height="22" viewBox="0 0 22 22"><g><g><path fill="#363636" d="M2.515 1.1L11 9.586 19.485 1.1A1 1 0 0 1 20.9 2.515L12.414 11l8.485 8.485a1 1 0 0 1-1.414 1.414L11 12.414 2.515 20.9A1 1 0 1 1 1.1 19.485L9.586 11 1.1 2.515A1 1 0 0 1 2.515 1.1z"/><path fill="#444f5c" d="M2.515 1.1L11 9.586 19.485 1.1A1 1 0 0 1 20.9 2.515L12.414 11l8.485 8.485a1 1 0 0 1-1.414 1.414L11 12.414 2.515 20.9A1 1 0 1 1 1.1 19.485L9.586 11 1.1 2.515A1 1 0 0 1 2.515 1.1z"/></g></g></svg>