<svg xmlns="http://www.w3.org/2000/svg" width="18" height="18" viewBox="0 0 18 18"><g><g><path fill="#fff" d="M9 18a9 9 0 1 1 9-9 9 9 0 0 1-9 9zM9 2a7 7 0 1 0 0 14A7 7 0 0 0 9 2zm-.293 10.535a1 1 0 1 1-1.414-1.414L9.414 9 7.293 6.878a1 1 0 0 1 1.414-1.414l2.828 2.829a1 1 0 0 1 0 1.414z"/><path fill="#0587d1" d="M9 18a9 9 0 1 1 9-9 9 9 0 0 1-9 9zM9 2a7 7 0 1 0 0 14A7 7 0 0 0 9 2zm-.293 10.535a1 1 0 1 1-1.414-1.414L9.414 9 7.293 6.878a1 1 0 0 1 1.414-1.414l2.828 2.829a1 1 0 0 1 0 1.414z"/></g></g></svg>