<svg xmlns="http://www.w3.org/2000/svg" width="14" height="14" viewBox="0 0 14 14"><g><g><path fill="#ff963b" d="M7 4a3 3 0 1 1 0 6 3 3 0 0 1 0-6zm0-4a1 1 0 0 1 1 1v1a1 1 0 0 1-2 0V1a1 1 0 0 1 1-1zm0 11a1 1 0 0 1 1 1v1a1 1 0 0 1-2 0v-1a1 1 0 0 1 1-1zM1 6h1a1 1 0 0 1 0 2H1a1 1 0 1 1 0-2zm11 0h1a1 1 0 0 1 0 2h-1a1 1 0 1 1 0-2zM2.298 2.282a1.006 1.006 0 0 1 1.425 0l.426.43a1.013 1.013 0 0 1 0 1.428 1.006 1.006 0 0 1-1.426 0l-.425-.429a1.012 1.012 0 0 1 0-1.429zM9.85 9.857a1.006 1.006 0 0 1 1.425 0l.426.429a1.012 1.012 0 0 1 0 1.43 1.006 1.006 0 0 1-1.426 0l-.425-.43a1.013 1.013 0 0 1 0-1.43zm-7.552.429l.425-.43a1.006 1.006 0 0 1 1.426 0 1.013 1.013 0 0 1 0 1.43l-.426.429a1.006 1.006 0 0 1-1.425 0 1.012 1.012 0 0 1 0-1.429zM9.85 2.711l.425-.429a1.006 1.006 0 0 1 1.426 0 1.012 1.012 0 0 1 0 1.43l-.426.428a1.006 1.006 0 0 1-1.425 0 1.013 1.013 0 0 1 0-1.429z"/></g></g></svg>